<?xml version="1.0" encoding="utf-8"?>
<svg version="1.1" id="Layer_1" xmlns="http://www.w3.org/2000/svg" xmlns:xlink="http://www.w3.org/1999/xlink" x="0px" y="0px" viewBox="-288 380 35 33"
	 style="enable-background:new -288 380 35 33;" xml:space="preserve">
<style type="text/css">
	.st0{fill:#fff;}
</style>
<g>
	<g transform="translate(-89.000000, -666.000000)">
		
			<g transform="translate(84.000000, 658.500000)">
			<g id="icon-book" transform="translate(5.000000, 7.500000)">
				<path id="Fill-12" class="st0" d="M-287.6,408.7c0.4,1.1,1.1,2,2.1,2.7c1,0.7,2,1.1,3.1,1.1h19.3c0.9,0,1.8-0.3,2.5-0.9
					c0.8-0.6,1.3-1.3,1.6-2.2l5.8-18.9c0.3-1,0.2-1.9-0.4-2.7c-0.3-0.4-0.7-0.7-1.2-0.9c0,0.5,0,0.9-0.1,1.2l-6.2,20.6
					c-0.1,0.4-0.4,0.7-0.7,0.9c-0.4,0.2-0.7,0.3-1.2,0.3h-19.3c-1.7,0-2.7-0.5-3-1.5c-0.1-0.4-0.1-0.7,0-0.9
					c0.1-0.2,0.4-0.3,0.8-0.3h18.1c1.3,0,2.2-0.2,2.7-0.7c0.5-0.5,1-1.6,1.5-3.2l5.7-18.9c0.3-1,0.2-1.9-0.4-2.7
					c-0.6-0.8-1.3-1.2-2.4-1.2h-15.9c-0.2,0-0.5,0.1-1,0.2v-0.1c-0.4-0.1-0.7-0.1-1-0.1c-0.3,0-0.5,0.1-0.7,0.3
					c-0.2,0.1-0.4,0.3-0.6,0.5c-0.1,0.1-0.3,0.4-0.4,0.7c-0.1,0.3-0.3,0.5-0.3,0.7c-0.1,0.2-0.2,0.5-0.3,0.7
					c-0.1,0.3-0.3,0.5-0.3,0.6c-0.1,0.1-0.2,0.3-0.4,0.4c-0.1,0.2-0.3,0.3-0.4,0.5s-0.1,0.3-0.2,0.4c0,0.1,0,0.3,0,0.6
					c0.1,0.2,0.1,0.4,0.1,0.5c-0.1,0.5-0.3,1.2-0.6,2c-0.3,0.8-0.6,1.4-0.9,1.8c-0.1,0.1-0.2,0.2-0.5,0.5c-0.2,0.2-0.4,0.4-0.4,0.6
					c0,0.1,0,0.3,0,0.6c0,0.3,0.1,0.5,0,0.6c0,0.5-0.2,1.1-0.5,1.9c-0.3,0.8-0.6,1.4-0.9,1.9c0,0.1-0.1,0.3-0.4,0.5
					c-0.2,0.3-0.3,0.5-0.3,0.6c0,0.1,0,0.3,0,0.6c0,0.3,0,0.5,0,0.6c-0.1,0.5-0.3,1.2-0.6,1.9c-0.3,0.7-0.6,1.4-0.9,1.9
					c-0.1,0.1-0.2,0.3-0.3,0.5c-0.1,0.2-0.3,0.4-0.3,0.5c-0.1,0.1-0.1,0.3-0.2,0.4c0,0.1,0,0.2,0.1,0.4c0,0.2,0.1,0.3,0,0.4
					c0,0.2,0,0.5-0.1,0.8c0,0.3,0,0.5,0,0.6C-288,406.9-288,407.8-287.6,408.7L-287.6,408.7z M-277.2,391.9c0.1-0.2,0.2-0.3,0.3-0.5
					c0.2-0.1,0.4-0.2,0.6-0.2h12.7c0.2,0,0.3,0.1,0.4,0.2c0.1,0.2,0.1,0.3,0,0.5l-0.4,1.3c-0.1,0.2-0.2,0.3-0.4,0.5
					c-0.1,0.1-0.3,0.2-0.5,0.2h-12.7c-0.2,0-0.3-0.1-0.4-0.2c-0.1-0.1-0.1-0.3,0-0.5L-277.2,391.9L-277.2,391.9z M-275.4,386.5
					c0-0.2,0.2-0.3,0.3-0.5c0.1-0.1,0.3-0.2,0.5-0.2h12.7c0.2,0,0.3,0.1,0.4,0.2c0.1,0.1,0.1,0.3,0.1,0.5l-0.4,1.3
					c-0.1,0.2-0.2,0.3-0.3,0.5c-0.2,0.1-0.4,0.2-0.6,0.2h-12.7c-0.2,0-0.3-0.1-0.4-0.2c-0.1-0.1-0.1-0.3,0-0.5L-275.4,386.5
					L-275.4,386.5z"/>
			</g>
		</g>
	</g>
</g>
</svg>
