<?xml version="1.0" encoding="utf-8"?>
<svg version="1.1" id="Layer_1" xmlns="http://www.w3.org/2000/svg" xmlns:xlink="http://www.w3.org/1999/xlink" x="0px" y="0px" viewBox="-290 379 31 35"
	 style="enable-background:new -290 379 31 35;" xml:space="preserve">
<style type="text/css">
	.st0{fill:#4D4D4D;}
</style>
<g>
	<g transform="translate(-26.000000, -575.000000)">
		<g id="Path-223-_x2B_-Path-226" transform="translate(26.000000, 575.000000)">
			<path id="Path-223" class="st0" d="M-283,394c0,0,7.8-4.4,10-6s3-2.5,4-4s0.4-3.2,1-4s2,0,2,0
				s2,1.6,2,4s-2,5-2,5l-2,2c0,0,0,1,1,1s6,0,7,1s0.9,2.1,0.2,3.3s-1.9,1.7-1.9,2.4s0.7,1.6,0.7,3.3s-1.2,1.9-1.5,2.9
				s0.1,1.8-0.5,3.1s-1.3,0.8-2,2s0,2.6-1,3c-1.2,0.4-8,0-8,0s-2.5-1.4-4-2s-5-1-5-1V394z"/>
			<path id="Path-226" class="st0" d="M-282.9,392h-5.1l-1,2v15l1,2c0,0,3.5-0.1,5.1,0c0,0,0-1,0-1h-2
				v-14v-3h2L-282.9,392z"/>
		</g>
	</g>
</g>
</svg>
