<?xml version="1.0" encoding="UTF-8" standalone="no"?>
<svg width="11px" height="7px" viewBox="0 0 11 7" version="1.1" xmlns="http://www.w3.org/2000/svg" xmlns:xlink="http://www.w3.org/1999/xlink" xmlns:sketch="http://www.bohemiancoding.com/sketch/ns">
    <!-- Generator: Sketch 3.3.2 (12043) - http://www.bohemiancoding.com/sketch -->
    <title>Down Arrow Carrat</title>
    <desc>Created with Sketch.</desc>
    <defs></defs>
    <g id="Mobile-Screens" stroke="none" stroke-width="1" fill="none" fill-rule="evenodd" sketch:type="MSPage">
        <g id="iPhone-6-Landing-Screen" sketch:type="MSArtboardGroup" transform="translate(-249.000000, -302.000000)" fill="#0095C8">
            <g id="Filter-By-Tags--+-Fill-63-Copy" sketch:type="MSLayerGroup" transform="translate(120.000000, 291.000000)">
                <path d="M131.252368,19.2283077 L131.795343,19.7410769 C131.854136,19.8172308 131.950972,19.8553077 132.028787,19.8553077 C132.125623,19.8553077 132.203438,19.8172308 132.280389,19.7410769 L137.326247,14.8029231 C137.404062,14.7462308 137.442969,14.6514615 137.442969,14.5753077 C137.442969,14.4805385 137.404062,14.3857692 137.326247,14.3282308 L132.280389,9.39007692 C132.203438,9.31476923 132.125623,9.27669231 132.028787,9.27669231 C131.950972,9.27669231 131.854136,9.31476923 131.795343,9.39007692 L131.252368,9.92230769 C131.174553,9.979 131.135646,10.0737692 131.135646,10.1499231 C131.135646,10.2446923 131.174553,10.3403077 131.252368,10.397 L135.501922,14.5753077 L131.252368,18.735 C131.174553,18.8103077 131.135646,18.8864615 131.135646,18.9812308 C131.135646,19.0768462 131.174553,19.1521538 131.252368,19.2283077" id="Down-Arrow-Carrat" sketch:type="MSShapeGroup" transform="translate(134.289308, 14.566000) rotate(90.000000) translate(-134.289308, -14.566000) "></path>
            </g>
        </g>
    </g>
</svg>