<?xml version="1.0" encoding="UTF-8" standalone="no"?>
<svg width="19px" height="24px" viewBox="0 0 19 24" version="1.1" xmlns="http://www.w3.org/2000/svg" xmlns:xlink="http://www.w3.org/1999/xlink" xmlns:sketch="http://www.bohemiancoding.com/sketch/ns">
    <!-- Generator: Sketch 3.3.3 (12081) - http://www.bohemiancoding.com/sketch -->
    <title>Group</title>
    <desc>Created with Sketch.</desc>
    <defs></defs>
    <g id="Desktop-Screens" stroke="none" stroke-width="1" fill="none" fill-rule="evenodd" sketch:type="MSPage">
        <g id="Desktop-with-Lightbox-Staff-Rec-V.2-No-eBook" sketch:type="MSArtboardGroup" transform="translate(-754.000000, -786.000000)" fill="#FFFFFF">
            <g id="Group" sketch:type="MSLayerGroup" transform="translate(754.052826, 786.580002)">
                <path d="M17.15,0 L1.85,0 C0.9,0 0.1,0.75 0.1,1.7 L0.1,21.3 C0.1,22.25 0.85,23 1.8,23 L17.15,23 C18.1,23 18.85,22.25 18.85,21.3 L18.85,1.7 C18.9,0.75 18.1,0 17.15,0 L17.15,0 Z M9.5,22 C8.9,22 8.4,21.5 8.4,20.9 C8.4,20.3 8.9,19.8 9.5,19.8 C10.1,19.8 10.6,20.3 10.6,20.9 C10.6,21.5 10.1,22 9.5,22 L9.5,22 Z M17.15,19.1 L1.85,19.1 L1.85,1.7 L17.15,1.7 L17.15,19.1 L17.15,19.1 Z" id="Shape" sketch:type="MSShapeGroup"></path>
                <g transform="translate(4.000000, 3.500000)" id="Shape" sketch:type="MSShapeGroup">
                    <path d="M10.45,1.4 L0.55,1.4 C0.25,1.4 0.05,1.2 0.05,0.9 C0.05,0.6 0.25,0.4 0.55,0.4 L10.4,0.4 C10.7,0.4 10.9,0.6 10.9,0.9 C10.9,1.2 10.7,1.4 10.45,1.4 L10.45,1.4 Z"></path>
                    <path d="M10.45,4.5 L0.55,4.5 C0.25,4.5 0.05,4.3 0.05,4 C0.05,3.7 0.25,3.5 0.55,3.5 L10.4,3.5 C10.7,3.5 10.9,3.7 10.9,4 C10.95,4.25 10.7,4.5 10.45,4.5 L10.45,4.5 Z"></path>
                    <path d="M10.45,7.55 L0.55,7.55 C0.25,7.55 0.05,7.35 0.05,7.05 C0.05,6.75 0.25,6.55 0.55,6.55 L10.4,6.55 C10.7,6.55 10.9,6.75 10.9,7.05 C10.9,7.35 10.7,7.55 10.45,7.55 L10.45,7.55 Z"></path>
                    <path d="M10.45,10.6 L0.55,10.6 C0.25,10.6 0.05,10.4 0.05,10.1 C0.05,9.8 0.25,9.6 0.55,9.6 L10.4,9.6 C10.7,9.6 10.9,9.8 10.9,10.1 C10.9,10.4 10.7,10.6 10.45,10.6 L10.45,10.6 Z"></path>
                    <path d="M10.45,13.65 L0.55,13.65 C0.25,13.65 0.05,13.45 0.05,13.15 C0.05,12.85 0.25,12.65 0.55,12.65 L10.4,12.65 C10.7,12.65 10.9,12.85 10.9,13.15 C10.9,13.45 10.7,13.65 10.45,13.65 L10.45,13.65 Z"></path>
                </g>
            </g>
        </g>
    </g>
</svg>