<?xml version="1.0" encoding="utf-8"?>
<svg version="1.1" id="Layer_1" 
	 xmlns="http://www.w3.org/2000/svg" xmlns:xlink="http://www.w3.org/1999/xlink" x="0px" y="0px" viewBox="-292 381 27 32"
	 style="enable-background:new -292 381 27 32;" xml:space="preserve">
<style type="text/css">
	.st0{fill:#fff;}
</style>
<g transform="translate(-108.000000, -740.000000)">
		<g transform="translate(101.000000, 732.000000)">
			<g id="E-Reader" transform="translate(7.000000, 8.000000)">
				<path id="Shape" class="st0" d="M-267.6,381h-21.7c-1.3,0-2.5,1-2.5,2.4v27.3c0,1.3,1.1,2.4,2.4,2.4h21.8c1.3,0,2.4-1,2.4-2.4
					v-27.3C-265.1,382-266.3,381-267.6,381L-267.6,381z M-278.5,411.6c-0.9,0-1.6-0.7-1.6-1.5c0-0.8,0.7-1.5,1.6-1.5
					s1.6,0.7,1.6,1.5C-276.9,410.9-277.6,411.6-278.5,411.6L-278.5,411.6z M-267.6,407.6h-21.7v-24.2h21.7V407.6L-267.6,407.6z"/>
				<g id="Group" transform="translate(5.684211, 4.869565)">
					<path id="Shape_1_" class="st0" d="M-277.1,382.9h-14.1c-0.4,0-0.7-0.3-0.7-0.7s0.3-0.7,0.7-0.7h14c0.4,0,0.7,0.3,0.7,0.7
						S-276.8,382.9-277.1,382.9L-277.1,382.9z"/>
					<path id="Shape_2_" class="st0" d="M-277.1,387.3h-14.1c-0.4,0-0.7-0.3-0.7-0.7s0.3-0.7,0.7-0.7h14c0.4,0,0.7,0.3,0.7,0.7
						C-276.4,386.9-276.8,387.3-277.1,387.3L-277.1,387.3z"/>
					<path id="Shape_3_" class="st0" d="M-277.1,391.5h-14.1c-0.4,0-0.7-0.3-0.7-0.7s0.3-0.7,0.7-0.7h14c0.4,0,0.7,0.3,0.7,0.7
						S-276.8,391.5-277.1,391.5L-277.1,391.5z"/>
					<path id="Shape_4_" class="st0" d="M-277.1,395.7h-14.1c-0.4,0-0.7-0.3-0.7-0.7s0.3-0.7,0.7-0.7h14c0.4,0,0.7,0.3,0.7,0.7
						S-276.8,395.7-277.1,395.7L-277.1,395.7z"/>
					<path id="Shape_5_" class="st0" d="M-277.1,400h-14.1c-0.4,0-0.7-0.3-0.7-0.7s0.3-0.7,0.7-0.7h14c0.4,0,0.7,0.3,0.7,0.7
						S-276.8,400-277.1,400L-277.1,400z"/>
				</g>
			</g>
		</g>
	</g>

</svg>
  