<?xml version="1.0" encoding="UTF-8" standalone="no"?>
<svg width="23px" height="24px" viewBox="0 0 23 24" version="1.1" xmlns="http://www.w3.org/2000/svg" xmlns:xlink="http://www.w3.org/1999/xlink" xmlns:sketch="http://www.bohemiancoding.com/sketch/ns">
    <!-- Generator: Sketch 3.3.2 (12043) - http://www.bohemiancoding.com/sketch -->
    <title>left arrow gray</title>
    <desc>Created with Sketch.</desc>
    <defs></defs>
    <g id="Mobile-Screens" stroke="none" stroke-width="1" fill="none" fill-rule="evenodd" sketch:type="MSPage">
        <g id="iPhone-6-Landing-By-List" sketch:type="MSArtboardGroup" transform="translate(-14.000000, -347.000000)">
            <g id="left-arrow-gray" sketch:type="MSLayerGroup" transform="translate(15.000000, 348.000000)">
                <ellipse id="Oval-8" stroke="#BFBFBF" stroke-width="2" sketch:type="MSShapeGroup" cx="10.5" cy="10.789" rx="10.5" ry="10.5"></ellipse>
                <g id="fa-angle-left" transform="translate(6.973868, 5.289000)"></g>
                <path d="M7.12863326,10.998 L12.1744918,15.9361538 C12.2523066,16.0123077 12.3292569,16.0503846 12.4269577,16.0503846 C12.5039079,16.0503846 12.6016087,16.0123077 12.6785589,15.9361538 L13.202512,15.4233846 C13.2803268,15.3472308 13.3192342,15.2710769 13.3192342,15.1763077 C13.3192342,15.0815385 13.2803268,15.0053846 13.202512,14.9300769 L8.95295841,10.7703846 L13.202512,6.59207692 C13.2803268,6.53453846 13.3192342,6.43976923 13.3192342,6.345 C13.3192342,6.26884615 13.2803268,6.17407692 13.202512,6.11738462 L12.6785589,5.58515385 C12.6016087,5.509 12.5039079,5.47176923 12.4269577,5.47176923 C12.3292569,5.47176923 12.2523066,5.509 12.1744918,5.58515385 L7.12863326,10.5233077 C7.05081844,10.58 7.01191103,10.6756154 7.01191103,10.7703846 C7.01191103,10.8465385 7.05081844,10.9413077 7.12863326,10.998" id="Fill-49" fill="#BFBFBF" sketch:type="MSShapeGroup"></path>
            </g>
        </g>
    </g>
</svg>