<?xml version="1.0" encoding="UTF-8" standalone="no"?>
<svg width="23px" height="24px" viewBox="0 0 23 24" version="1.1" xmlns="http://www.w3.org/2000/svg" xmlns:xlink="http://www.w3.org/1999/xlink" xmlns:sketch="http://www.bohemiancoding.com/sketch/ns">
    <!-- Generator: Sketch 3.3.2 (12043) - http://www.bohemiancoding.com/sketch -->
    <title>left arrow blue</title>
    <desc>Created with Sketch.</desc>
    <defs></defs>
    <g id="Mobile-Screens" stroke="none" stroke-width="1" fill="none" fill-rule="evenodd" sketch:type="MSPage">
        <g id="iPhone-6-Landing-By-List" sketch:type="MSArtboardGroup" transform="translate(-14.000000, -347.000000)">
            <g id="left-arrow-blue" sketch:type="MSLayerGroup" transform="translate(15.000000, 348.289000)">
                <ellipse id="Oval-8" stroke="#0095C8" stroke-width="2" sketch:type="MSShapeGroup" cx="10.5" cy="10.5" rx="10.5" ry="10.5"></ellipse>
                <g id="fa-angle-left" transform="translate(6.973868, 5.000000)" fill="#0095C8" sketch:type="MSShapeGroup">
                    <path d="M0.154765025,5.709 L5.20062359,10.6471538 C5.27843841,10.7233077 5.35538862,10.7613846 5.45308944,10.7613846 C5.53003965,10.7613846 5.62774048,10.7233077 5.70469068,10.6471538 L6.22864378,10.1343846 C6.3064586,10.0582308 6.34536601,9.98207692 6.34536601,9.88730769 C6.34536601,9.79253846 6.3064586,9.71638462 6.22864378,9.64107692 L1.97909018,5.48138462 L6.22864378,1.30307692 C6.3064586,1.24553846 6.34536601,1.15076923 6.34536601,1.056 C6.34536601,0.979846154 6.3064586,0.885076923 6.22864378,0.828384615 L5.70469068,0.296153846 C5.62774048,0.22 5.53003965,0.182769231 5.45308944,0.182769231 C5.35538862,0.182769231 5.27843841,0.22 5.20062359,0.296153846 L0.154765025,5.23430769 C0.0769502078,5.291 0.0380427993,5.38661538 0.0380427993,5.48138462 C0.0380427993,5.55753846 0.0769502078,5.65230769 0.154765025,5.709" id="Fill-49"></path>
                </g>
            </g>
        </g>
    </g>
</svg>