<?xml version="1.0" encoding="UTF-8" standalone="no"?>
<svg width="505px" height="568px" viewBox="0 0 505 568" version="1.1" xmlns="http://www.w3.org/2000/svg" xmlns:xlink="http://www.w3.org/1999/xlink" xmlns:sketch="http://www.bohemiancoding.com/sketch/ns">
    <!-- Generator: Sketch 3.3.2 (12043) - http://www.bohemiancoding.com/sketch -->
    <title>Furling Book Icon</title>
    <desc>Created with Sketch.</desc>
    <defs></defs>
    <g id="Desktop-Screens" stroke="none" stroke-width="1" fill="none" fill-rule="evenodd" sketch:type="MSPage">
        <g id="Desktop-Landing-Page-w/-V.2" sketch:type="MSArtboardGroup" transform="translate(-688.000000, -148.000000)" fill="#9E0200">
            <g id="Header-/-Hero--Alt" sketch:type="MSLayerGroup" transform="translate(0.000000, 226.000000)">
                <g id="Imported-Layers" sketch:type="MSShapeGroup">
                    <g id="Furling-Book-Icon" transform="translate(688.000000, -78.606667)">
                        <path d="M335.689486,418.104127 C359.178054,399.647227 407.468649,350.247467 424.250189,294.011817 C386.034108,247.081348 225.233135,46.8177048 188.106946,0.57082381 C184.306297,44.4739714 145.685,136.828225 78.6566486,167.701332 C47.8602162,182.712386 17.1755676,192.059417 5.49416216,195.365756 L234.818595,472.637779 C260.738459,464.281254 311.921459,436.728437 335.689486,418.104127" id="Fill-1"></path>
                        <path d="M490.607838,435.514717 C452.461622,457.668578 412.07973,478.176244 369.280514,493.689527 C318.628486,512.048771 257.482757,532.835454 237.906622,538.597132 L237.906622,568.63319 L490.524,477.939081 L490.607838,435.514717" id="Fill-2"></path>
                        <path d="M0.491837838,204.140805 L0.491837838,287.482846 L228.26527,567.893798 L228.460892,479.752684 L0.491837838,204.140805" id="Fill-3"></path>
                        <path d="M480.701,406.608673 C451.259946,429.669335 413.882243,453.022963 373.430486,473.195811 C335.172486,492.3363 250.901486,518.117367 237.906622,522.05149 L237.906622,528.761822 C259.536784,522.372359 314.408649,505.924373 362.545541,487.662784 C415.978189,467.406232 492.354459,419.527108 492.354459,419.527108 L480.701,406.608673" id="Fill-4"></path>
                        <path d="M434.688,291.863395 L434.03127,294.221079 C417.291649,353.65146 367.995,404.711365 341.516216,425.525949 C316.728162,444.973356 265.181865,472.707533 237.906622,481.538386 L237.906622,494.247559 C276.234486,482.333581 329.792892,456.984989 359.513405,436.114602 C410.570649,400.205259 460.426216,350.386975 491.082919,304.837633 L491.362378,305.046895 C456.821189,266.124181 264.860486,46.734 252.424541,30.9696032 C248.204703,38.9215556 244.390081,44.2368079 238.200054,47.8779651 C301.777081,127.034768 406.029432,256.749248 433.137,289.952137 L434.688,291.863395" id="Fill-5"></path>
                        <path d="M472.512838,345.127525 C472.512838,345.127525 404.506378,416.011508 364.948892,443.82939 C331.525541,467.308576 279.853486,490.355287 237.906622,503.399279 L237.906622,512.188279 C241.972757,510.946659 248.693757,508.86799 257.091514,506.203389 C287.99973,496.368079 341.655946,478.525014 369.210649,464.755581 C423.817027,437.523632 472.638595,404.557906 503.225432,374.605552 C503.532838,374.298635 503.840243,373.991717 504.161622,373.670849 L472.512838,345.127525" id="Fill-6"></path>
                    </g>
                </g>
            </g>
        </g>
    </g>
</svg>