<?xml version="1.0" encoding="UTF-8" standalone="no"?>
<svg width="23px" height="23px" viewBox="0 0 23 23" version="1.1" xmlns="http://www.w3.org/2000/svg" xmlns:xlink="http://www.w3.org/1999/xlink" xmlns:sketch="http://www.bohemiancoding.com/sketch/ns">
    <!-- Generator: Sketch 3.3.2 (12043) - http://www.bohemiancoding.com/sketch -->
    <title>right arrow gray</title>
    <desc>Created with Sketch.</desc>
    <defs></defs>
    <g id="Mobile-Screens" stroke="none" stroke-width="1" fill="none" fill-rule="evenodd" sketch:type="MSPage">
        <g id="iPhone-6-Landing-By-List" sketch:type="MSArtboardGroup" transform="translate(-341.000000, -347.000000)">
            <g id="right-arrow-gray" sketch:type="MSLayerGroup" transform="translate(342.000000, 348.000000)">
                <circle id="Oval-8" stroke="#BFBFBF" stroke-width="2" sketch:type="MSShapeGroup" cx="10.5" cy="10.5" r="10.5"></circle>
                <path d="M8.80546296,15.1995385 L9.34843746,15.7123077 C9.40723087,15.7884615 9.50406709,15.8265385 9.58188191,15.8265385 C9.67871812,15.8265385 9.75653294,15.7884615 9.83348315,15.7123077 L14.8793417,10.7741538 C14.9571565,10.7174615 14.9960639,10.6226923 14.9960639,10.5465385 C14.9960639,10.4517692 14.9571565,10.357 14.8793417,10.2994615 L9.83348315,5.36130769 C9.75653294,5.286 9.67871812,5.24792308 9.58188191,5.24792308 C9.50406709,5.24792308 9.40723087,5.286 9.34843746,5.36130769 L8.80546296,5.89353846 C8.72764814,5.95023077 8.68874073,6.045 8.68874073,6.12115385 C8.68874073,6.21592308 8.72764814,6.31153846 8.80546296,6.36823077 L13.0550166,10.5465385 L8.80546296,14.7062308 C8.72764814,14.7815385 8.68874073,14.8576923 8.68874073,14.9524615 C8.68874073,15.0480769 8.72764814,15.1233846 8.80546296,15.1995385" id="Fill-63" fill="#BFBFBF" sketch:type="MSShapeGroup"></path>
            </g>
        </g>
    </g>
</svg>