<?xml version="1.0" encoding="UTF-8" standalone="no"?>
<svg width="14px" height="22px" viewBox="0 0 14 22" version="1.1" xmlns="http://www.w3.org/2000/svg" xmlns:xlink="http://www.w3.org/1999/xlink" xmlns:sketch="http://www.bohemiancoding.com/sketch/ns">
    <!-- Generator: Sketch 3.3.2 (12043) - http://www.bohemiancoding.com/sketch -->
    <title>Simple Arrow Right Blue</title>
    <desc>Created with Sketch.</desc>
    <defs></defs>
    <g id="Desktop-Screens" stroke="none" stroke-width="1" fill="none" fill-rule="evenodd" sketch:type="MSPage">
        <g id="Desktop-with-Lightbox-Staff-Rec-V.2" sketch:type="MSArtboardGroup" transform="translate(-1040.000000, -837.000000)" fill="#0095C8">
            <g id="Overlay-/-eBook-Avail" sketch:type="MSLayerGroup" transform="translate(166.000000, 303.000000)">
                <g id="Next-Book" transform="translate(785.500000, 532.500000)" sketch:type="MSShapeGroup">
                    <path d="M89.6109259,21.3990769 L90.6968749,22.4246154 C90.8144617,22.5769231 91.0081342,22.6530769 91.1637638,22.6530769 C91.3574362,22.6530769 91.5130659,22.5769231 91.6669663,22.4246154 L101.758683,12.5483077 C101.914313,12.4349231 101.992128,12.2453846 101.992128,12.0930769 C101.992128,11.9035385 101.914313,11.714 101.758683,11.5989231 L91.6669663,1.72261538 C91.5130659,1.572 91.3574362,1.49584615 91.1637638,1.49584615 C91.0081342,1.49584615 90.8144617,1.572 90.6968749,1.72261538 L89.6109259,2.78707692 C89.4552963,2.90046154 89.3774815,3.09 89.3774815,3.24230769 C89.3774815,3.43184615 89.4552963,3.62307692 89.6109259,3.73646154 L98.1100331,12.0930769 L89.6109259,20.4124615 C89.4552963,20.5630769 89.3774815,20.7153846 89.3774815,20.9049231 C89.3774815,21.0961538 89.4552963,21.2467692 89.6109259,21.3990769" id="Simple-Arrow-Right-Blue"></path>
                </g>
            </g>
        </g>
    </g>
</svg>