<?xml version="1.0" encoding="UTF-8" standalone="no"?>
<svg width="12px" height="22px" viewBox="0 0 12 22" version="1.1" xmlns="http://www.w3.org/2000/svg" xmlns:xlink="http://www.w3.org/1999/xlink" xmlns:sketch="http://www.bohemiancoding.com/sketch/ns">
    <!-- Generator: Sketch 3.3.2 (12043) - http://www.bohemiancoding.com/sketch -->
    <title>Simple Arrow Left Blue</title>
    <desc>Created with Sketch.</desc>
    <defs></defs>
    <g id="Desktop-Screens" stroke="none" stroke-width="1" fill="none" fill-rule="evenodd" sketch:type="MSPage">
        <g id="Desktop-with-Lightbox-Staff-Rec-V.2" sketch:type="MSArtboardGroup" transform="translate(-210.000000, -836.000000)" fill="#0095C8">
            <g id="Overlay-/-eBook-Avail" sketch:type="MSLayerGroup" transform="translate(166.000000, 303.000000)">
                <g id="Previous-Book-+-Simple-Arrow-Left-Blue" transform="translate(44.000000, 533.000000)" sketch:type="MSShapeGroup">
                    <path d="M0.28742076,11.918 L9.65830096,21.7943077 C9.80281419,21.9466154 9.94572172,22.0227692 10.1271661,22.0227692 C10.2700736,22.0227692 10.451518,21.9466154 10.5944256,21.7943077 L11.5674813,20.7687692 C11.7119945,20.6164615 11.7842512,20.4641538 11.7842512,20.2746154 C11.7842512,20.0850769 11.7119945,19.9327692 11.5674813,19.7821538 L3.67545318,11.4627692 L11.5674813,3.10615385 C11.7119945,2.99107692 11.7842512,2.80153846 11.7842512,2.612 C11.7842512,2.45969231 11.7119945,2.27015385 11.5674813,2.15676923 L10.5944256,1.09230769 C10.451518,0.94 10.2700736,0.865538462 10.1271661,0.865538462 C9.94572172,0.865538462 9.80281419,0.94 9.65830096,1.09230769 L0.28742076,10.9686154 C0.142907529,11.082 0.0706509131,11.2732308 0.0706509131,11.4627692 C0.0706509131,11.6150769 0.142907529,11.8046154 0.28742076,11.918" id="Simple-Arrow-Left-Blue"></path>
                </g>
            </g>
        </g>
    </g>
</svg>