<?xml version="1.0" encoding="UTF-8" standalone="no"?>
<svg width="11px" height="7px" viewBox="0 0 11 7" version="1.1" xmlns="http://www.w3.org/2000/svg" xmlns:xlink="http://www.w3.org/1999/xlink" xmlns:sketch="http://www.bohemiancoding.com/sketch/ns">
    <!-- Generator: Sketch 3.3.2 (12043) - http://www.bohemiancoding.com/sketch -->
    <title>Up Arrow Carrat</title>
    <desc>Created with Sketch.</desc>
    <defs></defs>
    <g id="Mobile-Screens" stroke="none" stroke-width="1" fill="none" fill-rule="evenodd" sketch:type="MSPage">
        <g id="iPhone-6-Filtered-State" sketch:type="MSArtboardGroup" transform="translate(-213.000000, -551.000000)" fill="#0095C8">
            <g id="Done-+-Fill-63-Copy" sketch:type="MSLayerGroup" transform="translate(158.000000, 540.000000)">
                <path d="M57.2523683,19.2283077 L57.7953428,19.7410769 C57.8541362,19.8172308 57.9509724,19.8553077 58.0287873,19.8553077 C58.1256235,19.8553077 58.2034383,19.8172308 58.2803885,19.7410769 L63.3262471,14.8029231 C63.4040619,14.7462308 63.4429693,14.6514615 63.4429693,14.5753077 C63.4429693,14.4805385 63.4040619,14.3857692 63.3262471,14.3282308 L58.2803885,9.39007692 C58.2034383,9.31476923 58.1256235,9.27669231 58.0287873,9.27669231 C57.9509724,9.27669231 57.8541362,9.31476923 57.7953428,9.39007692 L57.2523683,9.92230769 C57.1745535,9.979 57.1356461,10.0737692 57.1356461,10.1499231 C57.1356461,10.2446923 57.1745535,10.3403077 57.2523683,10.397 L61.5019219,14.5753077 L57.2523683,18.735 C57.1745535,18.8103077 57.1356461,18.8864615 57.1356461,18.9812308 C57.1356461,19.0768462 57.1745535,19.1521538 57.2523683,19.2283077" id="Up-Arrow-Carrat" sketch:type="MSShapeGroup" transform="translate(60.289308, 14.566000) rotate(-90.000000) translate(-60.289308, -14.566000) "></path>
            </g>
        </g>
    </g>
</svg>