<?xml version="1.0" encoding="UTF-8" standalone="no"?>
<svg width="15px" height="14px" viewBox="0 0 15 14" version="1.1" xmlns="http://www.w3.org/2000/svg" xmlns:xlink="http://www.w3.org/1999/xlink" xmlns:sketch="http://www.bohemiancoding.com/sketch/ns">
    <!-- Generator: Sketch 3.3.2 (12043) - http://www.bohemiancoding.com/sketch -->
    <title>Small List Icon Blue</title>
    <desc>Created with Sketch.</desc>
    <defs></defs>
    <g id="Mobile-Screens" stroke="none" stroke-width="1" fill="none" fill-rule="evenodd" sketch:type="MSPage">
        <g id="iPhone-6-Landing-By-List" sketch:type="MSArtboardGroup" transform="translate(-250.000000, -235.000000)" fill="#0095C8">
            <g id="list-button-library-blue" sketch:type="MSLayerGroup" transform="translate(232.000000, 223.000000)">
                <g id="fa-list" transform="translate(18.023810, 12.391304)" sketch:type="MSShapeGroup">
                    <path d="M0.237283644,13.06731 C0.293929607,13.1162813 0.34994617,13.1491725 0.421068323,13.1491725 L1.93225673,13.1491725 C2.00337888,13.1491725 2.05939545,13.1162813 2.11604141,13.06731 C2.15821118,13.0015275 2.18653416,12.9357451 2.18653416,12.8538826 L2.18653416,11.0982232 C2.18653416,11.0163606 2.15821118,10.9505782 2.11604141,10.8847958 C2.05939545,10.8358245 2.00337888,10.8029333 1.93225673,10.8029333 L0.421068323,10.8029333 C0.34994617,10.8029333 0.293929607,10.8358245 0.237283644,10.8847958 C0.194484472,10.9505782 0.16679089,11.0163606 0.16679089,11.0982232 L0.16679089,12.8538826 C0.16679089,12.9357451 0.194484472,13.0015275 0.237283644,13.06731 L0.237283644,13.06731 Z M0.237283644,9.55599118 C0.293929607,9.60569345 0.34994617,9.63858465 0.421068323,9.63858465 L1.93225673,9.63858465 C2.00337888,9.63858465 2.05939545,9.60569345 2.11604141,9.55599118 C2.15821118,9.49093969 2.18653416,9.42515728 2.18653416,9.34329473 L2.18653416,7.58763534 C2.18653416,7.50577279 2.15821118,7.43999038 2.11604141,7.37420797 C2.05939545,7.32523663 2.00337888,7.29234542 1.93225673,7.29234542 L0.421068323,7.29234542 C0.34994617,7.29234542 0.293929607,7.32523663 0.237283644,7.37420797 C0.194484472,7.43999038 0.16679089,7.50577279 0.16679089,7.58763534 L0.16679089,9.34329473 C0.16679089,9.42515728 0.194484472,9.49093969 0.237283644,9.55599118 L0.237283644,9.55599118 Z M0.237283644,6.02932318 C0.293929607,6.07829453 0.34994617,6.11118573 0.421068323,6.11118573 L1.93225673,6.11118573 C2.00337888,6.11118573 2.05939545,6.07829453 2.11604141,6.02932318 C2.15821118,5.96354077 2.18653416,5.89775837 2.18653416,5.81589581 L2.18653416,4.06023643 C2.18653416,3.97837387 2.15821118,3.91259146 2.11604141,3.84680906 C2.05939545,3.79783771 2.00337888,3.7649465 1.93225673,3.7649465 L0.421068323,3.7649465 C0.34994617,3.7649465 0.293929607,3.79783771 0.237283644,3.84680906 C0.194484472,3.91259146 0.16679089,3.97837387 0.16679089,4.06023643 L0.16679089,5.81589581 C0.16679089,5.89775837 0.194484472,5.96354077 0.237283644,6.02932318 L0.237283644,6.02932318 Z M0.237283644,2.51800441 C0.293929607,2.56770667 0.34994617,2.59986696 0.421068323,2.59986696 L1.93225673,2.59986696 C2.00337888,2.59986696 2.05939545,2.56770667 2.11604141,2.51800441 C2.15821118,2.452222 2.18653416,2.38717051 2.18653416,2.30457704 L2.18653416,0.549648567 C2.18653416,0.467055099 2.15821118,0.402003606 2.11604141,0.336221198 C2.05939545,0.28724985 2.00337888,0.254358646 1.93225673,0.254358646 L0.421068323,0.254358646 C0.34994617,0.254358646 0.293929607,0.28724985 0.237283644,0.336221198 C0.194484472,0.402003606 0.16679089,0.467055099 0.16679089,0.549648567 L0.16679089,2.30457704 C0.16679089,2.38717051 0.194484472,2.452222 0.237283644,2.51800441 L0.237283644,2.51800441 Z M3.27476605,13.06731 C3.31693582,13.1162813 3.37358178,13.1491725 3.44407453,13.1491725 L14.0393872,13.1491725 C14.1105093,13.1491725 14.1665259,13.1162813 14.2231718,13.06731 C14.2653416,13.0015275 14.2936646,12.9357451 14.2936646,12.8538826 L14.2936646,11.0982232 C14.2936646,11.0163606 14.2653416,10.9505782 14.2231718,10.8847958 C14.1665259,10.8358245 14.1105093,10.8029333 14.0393872,10.8029333 L3.44407453,10.8029333 C3.37358178,10.8029333 3.31693582,10.8358245 3.27476605,10.8847958 C3.21812008,10.9505782 3.1897971,11.0163606 3.1897971,11.0982232 L3.1897971,12.8538826 C3.1897971,12.9357451 3.21812008,13.0015275 3.27476605,13.06731 L3.27476605,13.06731 Z M3.27476605,9.55599118 C3.31693582,9.60569345 3.37358178,9.63858465 3.44407453,9.63858465 L14.0393872,9.63858465 C14.1105093,9.63858465 14.1665259,9.60569345 14.2231718,9.55599118 C14.2653416,9.49093969 14.2936646,9.42515728 14.2936646,9.34329473 L14.2936646,7.58763534 C14.2936646,7.50577279 14.2653416,7.43999038 14.2231718,7.37420797 C14.1665259,7.32523663 14.1105093,7.29234542 14.0393872,7.29234542 L3.44407453,7.29234542 C3.37358178,7.29234542 3.31693582,7.32523663 3.27476605,7.37420797 C3.21812008,7.43999038 3.1897971,7.50577279 3.1897971,7.58763534 L3.1897971,9.34329473 C3.1897971,9.42515728 3.21812008,9.49093969 3.27476605,9.55599118 L3.27476605,9.55599118 Z M3.27476605,6.02932318 C3.31693582,6.07829453 3.37358178,6.11118573 3.44407453,6.11118573 L14.0393872,6.11118573 C14.1105093,6.11118573 14.1665259,6.07829453 14.2231718,6.02932318 C14.2653416,5.96354077 14.2936646,5.89775837 14.2936646,5.81589581 L14.2936646,4.06023643 C14.2936646,3.97837387 14.2653416,3.91259146 14.2231718,3.84680906 C14.1665259,3.79783771 14.1105093,3.7649465 14.0393872,3.7649465 L3.44407453,3.7649465 C3.37358178,3.7649465 3.31693582,3.79783771 3.27476605,3.84680906 C3.21812008,3.91259146 3.1897971,3.97837387 3.1897971,4.06023643 L3.1897971,5.81589581 C3.1897971,5.89775837 3.21812008,5.96354077 3.27476605,6.02932318 L3.27476605,6.02932318 Z M3.27476605,2.51800441 C3.31693582,2.56770667 3.37358178,2.59986696 3.44407453,2.59986696 L14.0393872,2.59986696 C14.1105093,2.59986696 14.1665259,2.56770667 14.2231718,2.51800441 C14.2653416,2.452222 14.2936646,2.38717051 14.2936646,2.30457704 L14.2936646,0.549648567 C14.2936646,0.467055099 14.2653416,0.402003606 14.2231718,0.336221198 C14.1665259,0.28724985 14.1105093,0.254358646 14.0393872,0.254358646 L3.44407453,0.254358646 C3.37358178,0.254358646 3.31693582,0.28724985 3.27476605,0.336221198 C3.21812008,0.402003606 3.1897971,0.467055099 3.1897971,0.549648567 L3.1897971,2.30457704 C3.1897971,2.38717051 3.21812008,2.452222 3.27476605,2.51800441 L3.27476605,2.51800441 Z" id="Small-List-Icon-Blue"></path>
                </g>
            </g>
        </g>
    </g>
</svg>