<?xml version="1.0" encoding="UTF-8" standalone="no"?>
<svg width="15px" height="14px" viewBox="0 0 15 14" version="1.1" xmlns="http://www.w3.org/2000/svg" xmlns:xlink="http://www.w3.org/1999/xlink" xmlns:sketch="http://www.bohemiancoding.com/sketch/ns">
    <!-- Generator: Sketch 3.3.2 (12043) - http://www.bohemiancoding.com/sketch -->
    <title>Small List Icon Gray</title>
    <desc>Created with Sketch.</desc>
    <defs></defs>
    <g id="Mobile-Screens" stroke="none" stroke-width="1" fill="none" fill-rule="evenodd" sketch:type="MSPage">
        <g id="iPhone-6-Landing-By-List" sketch:type="MSArtboardGroup" transform="translate(-250.000000, -235.000000)" fill="#0A0B09" opacity="0.208430504">
            <g id="list-button-gray" sketch:type="MSLayerGroup" transform="translate(232.000000, 223.000000)">
                <g id="LIst-Icon" transform="translate(18.000000, 12.000000)" sketch:type="MSShapeGroup">
                    <path d="M0.261093168,13.4586143 C0.31773913,13.5075857 0.373755694,13.5404769 0.444877847,13.5404769 L1.95606625,13.5404769 C2.02718841,13.5404769 2.08320497,13.5075857 2.13985093,13.4586143 C2.1820207,13.3928319 2.21034369,13.3270495 2.21034369,13.2451869 L2.21034369,11.4895275 C2.21034369,11.407665 2.1820207,11.3418826 2.13985093,11.2761002 C2.08320497,11.2271288 2.02718841,11.1942376 1.95606625,11.1942376 L0.444877847,11.1942376 C0.373755694,11.1942376 0.31773913,11.2271288 0.261093168,11.2761002 C0.218293996,11.3418826 0.190600414,11.407665 0.190600414,11.4895275 L0.190600414,13.2451869 C0.190600414,13.3270495 0.218293996,13.3928319 0.261093168,13.4586143 L0.261093168,13.4586143 Z M0.261093168,9.94729553 C0.31773913,9.9969978 0.373755694,10.029889 0.444877847,10.029889 L1.95606625,10.029889 C2.02718841,10.029889 2.08320497,9.9969978 2.13985093,9.94729553 C2.1820207,9.88224404 2.21034369,9.81646163 2.21034369,9.73459908 L2.21034369,7.97893969 C2.21034369,7.89707714 2.1820207,7.83129473 2.13985093,7.76551232 C2.08320497,7.71654097 2.02718841,7.68364977 1.95606625,7.68364977 L0.444877847,7.68364977 C0.373755694,7.68364977 0.31773913,7.71654097 0.261093168,7.76551232 C0.218293996,7.83129473 0.190600414,7.89707714 0.190600414,7.97893969 L0.190600414,9.73459908 C0.190600414,9.81646163 0.218293996,9.88224404 0.261093168,9.94729553 L0.261093168,9.94729553 Z M0.261093168,6.42062753 C0.31773913,6.46959888 0.373755694,6.50249008 0.444877847,6.50249008 L1.95606625,6.50249008 C2.02718841,6.50249008 2.08320497,6.46959888 2.13985093,6.42062753 C2.1820207,6.35484512 2.21034369,6.28906271 2.21034369,6.20720016 L2.21034369,4.45154077 C2.21034369,4.36967822 2.1820207,4.30389581 2.13985093,4.2381134 C2.08320497,4.18914206 2.02718841,4.15625085 1.95606625,4.15625085 L0.444877847,4.15625085 C0.373755694,4.15625085 0.31773913,4.18914206 0.261093168,4.2381134 C0.218293996,4.30389581 0.190600414,4.36967822 0.190600414,4.45154077 L0.190600414,6.20720016 C0.190600414,6.28906271 0.218293996,6.35484512 0.261093168,6.42062753 L0.261093168,6.42062753 Z M0.261093168,2.90930876 C0.31773913,2.95901102 0.373755694,2.99117131 0.444877847,2.99117131 L1.95606625,2.99117131 C2.02718841,2.99117131 2.08320497,2.95901102 2.13985093,2.90930876 C2.1820207,2.84352635 2.21034369,2.77847485 2.21034369,2.69588139 L2.21034369,0.940952915 C2.21034369,0.858359447 2.1820207,0.793307954 2.13985093,0.727525546 C2.08320497,0.678554198 2.02718841,0.645662993 1.95606625,0.645662993 L0.444877847,0.645662993 C0.373755694,0.645662993 0.31773913,0.678554198 0.261093168,0.727525546 C0.218293996,0.793307954 0.190600414,0.858359447 0.190600414,0.940952915 L0.190600414,2.69588139 C0.190600414,2.77847485 0.218293996,2.84352635 0.261093168,2.90930876 L0.261093168,2.90930876 Z M3.29857557,13.4586143 C3.34074534,13.5075857 3.3973913,13.5404769 3.46788406,13.5404769 L14.0631967,13.5404769 C14.1343188,13.5404769 14.1903354,13.5075857 14.2469814,13.4586143 C14.2891511,13.3928319 14.3174741,13.3270495 14.3174741,13.2451869 L14.3174741,11.4895275 C14.3174741,11.407665 14.2891511,11.3418826 14.2469814,11.2761002 C14.1903354,11.2271288 14.1343188,11.1942376 14.0631967,11.1942376 L3.46788406,11.1942376 C3.3973913,11.1942376 3.34074534,11.2271288 3.29857557,11.2761002 C3.24192961,11.3418826 3.21360663,11.407665 3.21360663,11.4895275 L3.21360663,13.2451869 C3.21360663,13.3270495 3.24192961,13.3928319 3.29857557,13.4586143 L3.29857557,13.4586143 Z M3.29857557,9.94729553 C3.34074534,9.9969978 3.3973913,10.029889 3.46788406,10.029889 L14.0631967,10.029889 C14.1343188,10.029889 14.1903354,9.9969978 14.2469814,9.94729553 C14.2891511,9.88224404 14.3174741,9.81646163 14.3174741,9.73459908 L14.3174741,7.97893969 C14.3174741,7.89707714 14.2891511,7.83129473 14.2469814,7.76551232 C14.1903354,7.71654097 14.1343188,7.68364977 14.0631967,7.68364977 L3.46788406,7.68364977 C3.3973913,7.68364977 3.34074534,7.71654097 3.29857557,7.76551232 C3.24192961,7.83129473 3.21360663,7.89707714 3.21360663,7.97893969 L3.21360663,9.73459908 C3.21360663,9.81646163 3.24192961,9.88224404 3.29857557,9.94729553 L3.29857557,9.94729553 Z M3.29857557,6.42062753 C3.34074534,6.46959888 3.3973913,6.50249008 3.46788406,6.50249008 L14.0631967,6.50249008 C14.1343188,6.50249008 14.1903354,6.46959888 14.2469814,6.42062753 C14.2891511,6.35484512 14.3174741,6.28906271 14.3174741,6.20720016 L14.3174741,4.45154077 C14.3174741,4.36967822 14.2891511,4.30389581 14.2469814,4.2381134 C14.1903354,4.18914206 14.1343188,4.15625085 14.0631967,4.15625085 L3.46788406,4.15625085 C3.3973913,4.15625085 3.34074534,4.18914206 3.29857557,4.2381134 C3.24192961,4.30389581 3.21360663,4.36967822 3.21360663,4.45154077 L3.21360663,6.20720016 C3.21360663,6.28906271 3.24192961,6.35484512 3.29857557,6.42062753 L3.29857557,6.42062753 Z M3.29857557,2.90930876 C3.34074534,2.95901102 3.3973913,2.99117131 3.46788406,2.99117131 L14.0631967,2.99117131 C14.1343188,2.99117131 14.1903354,2.95901102 14.2469814,2.90930876 C14.2891511,2.84352635 14.3174741,2.77847485 14.3174741,2.69588139 L14.3174741,0.940952915 C14.3174741,0.858359447 14.2891511,0.793307954 14.2469814,0.727525546 C14.1903354,0.678554198 14.1343188,0.645662993 14.0631967,0.645662993 L3.46788406,0.645662993 C3.3973913,0.645662993 3.34074534,0.678554198 3.29857557,0.727525546 C3.24192961,0.793307954 3.21360663,0.858359447 3.21360663,0.940952915 L3.21360663,2.69588139 C3.21360663,2.77847485 3.24192961,2.84352635 3.29857557,2.90930876 L3.29857557,2.90930876 Z" id="Small-List-Icon-Gray"></path>
                </g>
            </g>
        </g>
    </g>
</svg>