<?xml version="1.0" encoding="UTF-8" standalone="no"?>
<svg width="16px" height="15px" viewBox="0 0 16 15" version="1.1" xmlns="http://www.w3.org/2000/svg" xmlns:xlink="http://www.w3.org/1999/xlink" xmlns:sketch="http://www.bohemiancoding.com/sketch/ns">
    <!-- Generator: Sketch 3.3.2 (12043) - http://www.bohemiancoding.com/sketch -->
    <title>Small Book Blue</title>
    <desc>Created with Sketch.</desc>
    <defs></defs>
    <g id="Mobile-Screens" stroke="none" stroke-width="1" fill="none" fill-rule="evenodd" sketch:type="MSPage">
        <g id="iPhone-6-Landing-By-List" sketch:type="MSArtboardGroup" transform="translate(-60.000000, -234.000000)" fill="#0095C8">
            <g id="covers-button-blue" sketch:type="MSLayerGroup" transform="translate(44.000000, 223.000000)">
                <path d="M16.5364286,23.7228571 C16.6964286,24.1878571 17.0007143,24.5721429 17.4178571,24.8928571 C17.8507143,25.2135714 18.2835714,25.3742857 18.7485714,25.3742857 L27.0057143,25.3742857 C27.39,25.3742857 27.7592857,25.2457143 28.0957143,24.9892857 C28.4485714,24.7328571 28.6728571,24.4121429 28.785,24.0271429 L31.2542857,15.9307143 C31.3821429,15.4978571 31.3342857,15.1128571 31.0935714,14.7764286 C30.9657143,14.6 30.7892857,14.4721429 30.565,14.3914286 C30.565,14.6 30.565,14.7607143 30.5164286,14.8885714 L27.8392857,23.7228571 C27.7907143,23.8828571 27.6785714,24.0114286 27.5185714,24.0914286 C27.3578571,24.1878571 27.1978571,24.2357143 27.0214286,24.2357143 L18.765,24.2357143 C18.0428571,24.2357143 17.61,24.0271429 17.4657143,23.6107143 C17.4178571,23.45 17.4178571,23.3221429 17.4821429,23.2257143 C17.5464286,23.1457143 17.6585714,23.0971429 17.8185714,23.0971429 L25.5942857,23.0971429 C26.1557143,23.0971429 26.5242857,23.0014286 26.7485714,22.7928571 C26.9571429,22.5842857 27.1657143,22.1192857 27.39,21.4142857 L29.8271429,13.3014286 C29.9714286,12.8528571 29.9071429,12.4678571 29.6671429,12.1314286 C29.4264286,11.7942857 29.09,11.6342857 28.6564286,11.6342857 L21.8428571,11.6342857 C21.7628571,11.6342857 21.6185714,11.6664286 21.3942857,11.7142857 L21.3942857,11.6821429 C21.2335714,11.65 21.0892857,11.6342857 20.9771429,11.6342857 C20.865,11.6342857 20.7528571,11.6821429 20.6564286,11.7464286 C20.56,11.8107143 20.48,11.8742857 20.4157143,11.955 C20.3521429,12.0185714 20.3035714,12.115 20.24,12.2435714 C20.1757143,12.3557143 20.1271429,12.4678571 20.0957143,12.5642857 C20.0635714,12.66 20.015,12.7721429 19.9671429,12.8685714 C19.9192857,12.9807143 19.855,13.0771429 19.8228571,13.1414286 C19.775,13.1892857 19.7264286,13.2535714 19.6621429,13.3335714 C19.5985714,13.4135714 19.55,13.4778571 19.5021429,13.5421429 C19.4542857,13.6064286 19.4378571,13.6542857 19.4221429,13.7021429 C19.4057143,13.7507143 19.4221429,13.8307143 19.4378571,13.9428571 C19.47,14.0392857 19.47,14.1192857 19.47,14.1671429 C19.4378571,14.3914286 19.3578571,14.68 19.2135714,15.0328571 C19.085,15.3857143 18.9571429,15.6421429 18.845,15.7864286 C18.8128571,15.8185714 18.7485714,15.8828571 18.6364286,15.995 C18.54,16.0914286 18.4757143,16.1871429 18.4442857,16.2671429 C18.4278571,16.2992857 18.4278571,16.38 18.4442857,16.5242857 C18.46,16.6521429 18.4757143,16.7485714 18.46,16.7964286 C18.4442857,17.005 18.3635714,17.2778571 18.2357143,17.6142857 C18.1071429,17.9507143 17.995,18.2235714 17.8671429,18.4321429 C17.8507143,18.48 17.8028571,18.5442857 17.7064286,18.64 C17.6264286,18.7528571 17.5785714,18.8328571 17.5621429,18.8971429 C17.5464286,18.945 17.5464286,19.025 17.5621429,19.1371429 C17.5785714,19.2657143 17.5785714,19.3457143 17.5621429,19.41 C17.5142857,19.6342857 17.4178571,19.9071429 17.29,20.2278571 C17.1614286,20.5485714 17.0328571,20.8207143 16.8885714,21.045 C16.8564286,21.1092857 16.8085714,21.1735714 16.7442857,21.2535714 C16.6807143,21.3335714 16.6321429,21.4142857 16.6,21.4621429 C16.5521429,21.5264286 16.5364286,21.59 16.52,21.6542857 C16.52,21.6864286 16.52,21.7507143 16.5521429,21.8307143 C16.5678571,21.9107143 16.5842857,21.975 16.5678571,22.0228571 C16.5678571,22.1035714 16.5521429,22.2157143 16.5364286,22.36 C16.52,22.4878571 16.52,22.5685714 16.52,22.6007143 C16.3757143,22.9528571 16.3921429,23.3221429 16.5364286,23.7228571 L16.5364286,23.7228571 Z M21.0092857,16.5078571 C21.0414286,16.4278571 21.0892857,16.3635714 21.1535714,16.2992857 C21.2335714,16.2514286 21.3135714,16.2192857 21.3942857,16.2192857 L26.8292857,16.2192857 C26.9092857,16.2192857 26.9735714,16.2514286 27.0057143,16.2992857 C27.0371429,16.3635714 27.0535714,16.4278571 27.0214286,16.5078571 L26.845,17.085 C26.8128571,17.165 26.765,17.2292857 26.685,17.2935714 C26.6207143,17.3414286 26.5407143,17.3735714 26.46,17.3735714 L21.025,17.3735714 C20.945,17.3735714 20.8807143,17.3414286 20.8485714,17.2935714 C20.8007143,17.2292857 20.8007143,17.165 20.8328571,17.085 L21.0092857,16.5078571 L21.0092857,16.5078571 Z M21.7628571,14.215 C21.7785714,14.135 21.8271429,14.0707143 21.9071429,14.0071429 C21.9714286,13.9585714 22.0514286,13.9264286 22.1314286,13.9264286 L27.5664286,13.9264286 C27.6628571,13.9264286 27.7107143,13.9585714 27.7428571,14.0071429 C27.7907143,14.0707143 27.7907143,14.135 27.775,14.215 L27.5828571,14.7921429 C27.5507143,14.8728571 27.5021429,14.9364286 27.4385714,15.0007143 C27.3578571,15.0492857 27.2778571,15.0814286 27.1978571,15.0814286 L21.7628571,15.0814286 C21.6828571,15.0814286 21.6185714,15.0492857 21.5864286,15.0007143 C21.5542857,14.9364286 21.5385714,14.8728571 21.57,14.7921429 L21.7628571,14.215 L21.7628571,14.215 Z" id="Small-Book-Blue" sketch:type="MSShapeGroup"></path>
            </g>
        </g>
    </g>
</svg>